PathFileType	4	(X/Y/Z)	D:\TRACE\spotREDO_2-26-24\spot_justArm_Motion_3_3-v60.trc
DataRate	CameraRate	NumFrames	NumMarkers	Units	OrigDataRate	OrigDataStartFrame	OrigNumFrames
100.00	100.00	      35	9	mm	100.00	1659	      6633
Frame#	Time	front left toe			Front right toe			aft left toe			aft right toe			Arm			FL body			FR body			AL Body			AR Body			
		X1	Y1	Z1	X2	Y2	Z2	X3	Y3	Z3	X4	Y4	Z4	X5	Y5	Z5	X6	Y6	Z6	X7	Y7	Z7	X8	Y8	Z8	X9	Y9	Z9	

1659	16.580	-181.69954	37.68669	-271.43060	312.40979	36.12504	-241.74612	-216.34718	7.35272	345.16534	271.88205	8.02870	375.64655	-43.82169	751.52844	-756.74011	8.12417	564.33643	-322.88391	163.13739	569.01141	-315.76260	-39.02052	540.97180	559.46362	108.55777	541.41266	567.89917	
1660	16.590	-182.15352	37.78436	-271.33572	312.15500	36.19187	-241.70224	-216.63506	7.15522	345.15424	271.78232	8.03358	375.81586	-44.13038	751.53339	-756.64807	7.64197	564.47736	-322.76901	162.79155	569.14819	-315.75607	-39.25039	540.83203	559.55719	108.13046	541.31317	567.97070	
1661	16.600	-182.39519	37.77839	-271.27734	311.89948	36.33961	-241.60558	-216.82161	6.94767	345.35098	271.63254	7.95557	375.83597	-44.67674	751.55768	-756.62744	7.10971	564.62341	-322.73880	162.31113	569.29364	-315.71683	-39.81287	540.63470	559.67902	107.80814	541.24414	567.96027	
1662	16.610	-182.90169	37.90798	-271.24332	311.54251	36.40097	-241.44366	-217.33414	6.81319	345.45108	271.43942	7.85101	375.90378	-45.17628	751.56805	-756.66400	6.14631	565.10883	-323.11945	161.86720	569.59106	-315.81464	-40.13066	540.48431	559.80267	107.39954	541.02661	568.08203	
1663	16.620	-183.33276	38.04594	-271.20972	310.95175	36.55238	-241.27361	-217.94312	6.68438	345.52106	270.85696	7.64216	375.92587	-45.52169	751.62579	-756.49750	5.82480	565.19434	-323.05566	161.29941	569.64026	-315.46518	-40.51022	540.41302	559.87408	106.91564	540.84955	568.14490	
1664	16.630	-183.69904	38.18933	-271.12277	310.54065	36.75286	-241.15097	-218.41344	6.60829	345.58530	269.78018	7.19465	375.81647	-46.18908	751.68329	-756.39233	5.31615	565.34875	-322.84433	161.00670	569.75568	-315.37753	-41.11435	540.26404	559.99225	106.73138	540.77881	568.52209	
1665	16.640	-184.01842	38.28980	-271.04230	310.04459	36.66703	-241.30000	-218.79089	6.48317	345.72360	269.57779	7.19591	375.94714	-46.57392	751.68243	-756.32147	5.47096	565.17358	-322.39371	160.62988	569.90143	-315.18875	-41.63480	540.11163	560.20135	106.11631	540.68866	568.37378	
1666	16.650	-184.60593	38.52048	-270.86966	309.41528	36.70314	-241.33504	-219.18739	6.40535	345.86731	269.15219	7.09489	375.98032	-47.13704	751.69116	-756.37482	4.97261	565.36383	-322.23053	160.13741	570.11102	-315.14478	-42.05058	539.92645	560.26080	105.49377	540.46466	568.43298	
1667	16.660	-184.95120	38.56305	-270.75742	309.03241	36.86810	-241.24608	-219.53461	6.15952	345.85770	268.91135	7.00363	375.95575	-47.38001	751.65668	-756.37823	4.47285	565.54175	-321.99918	159.69406	570.25189	-315.04187	-42.74073	539.71729	560.01862	105.09727	540.29297	568.56195	
1668	16.670	-185.18779	38.53648	-270.65225	308.85773	37.08985	-241.06175	-220.00446	6.08342	345.79437	268.60715	6.84875	376.02380	-47.78324	751.75128	-756.39844	4.07424	565.62866	-321.89948	159.32021	570.44525	-314.93320	-42.66742	539.65747	560.45947	104.52831	540.11829	568.78088	
1669	16.680	-185.55763	38.59962	-270.62842	308.63623	37.11846	-241.09726	-220.33151	6.01426	345.86371	268.49283	6.77150	376.04462	-48.01694	751.77240	-756.31323	3.66232	565.71613	-321.84451	158.99002	570.54950	-314.74261	-43.20940	539.47803	560.48907	104.11515	540.01917	568.88141	
1670	16.690	-185.90819	38.75488	-270.58521	307.97977	37.11741	-240.99898	-220.76874	5.83782	345.98154	267.43542	6.40874	375.86719	-47.64396	751.74432	-755.70990	3.13108	565.82532	-321.73483	158.55510	570.65424	-314.55881	-43.95842	539.33710	560.58130	104.06245	539.89948	569.29974	
1671	16.700	-186.40768	38.95154	-270.51501	307.71677	37.24371	-240.90115	-221.14386	5.69446	346.05685	267.11496	6.31814	375.88766	-48.65531	751.75250	-756.11066	2.79354	565.94037	-321.65176	158.05339	570.78351	-314.45416	-44.42873	539.21875	560.62079	103.42426	539.77081	569.42279	
1672	16.710	-186.75612	38.98652	-270.49146	307.40460	37.41645	-240.71695	-221.55089	5.61584	346.02533	266.78479	6.20935	375.94934	-49.21661	751.70081	-756.04919	2.36653	566.06946	-321.55917	157.53186	570.81226	-314.32205	-44.94167	539.05933	560.70282	102.67528	539.79834	569.10828	
1673	16.720	-187.17122	39.07055	-270.46750	307.04623	37.63494	-240.53296	-222.00630	5.49574	345.95996	266.31586	6.14141	376.00641	-49.47961	751.60620	-755.90936	1.95551	566.08282	-321.43082	157.14589	570.91125	-314.25186	-45.30581	538.91663	560.79492	102.21176	539.56122	569.33411	
1674	16.730	-187.60812	39.26740	-270.46799	306.61816	37.50679	-240.63278	-222.58624	5.34855	346.03918	266.27460	6.24448	376.17303	-49.83299	751.57813	-755.75275	1.62622	566.13123	-321.27325	156.84685	570.90240	-314.19028	-45.82611	538.76099	560.89447	101.80257	539.44269	569.43719	
1675	16.740	-188.07048	39.35894	-270.59027	305.97937	37.44534	-240.65999	-222.96060	5.31418	346.06802	265.99472	6.28300	376.34927	-50.30768	751.59552	-755.67828	1.31646	566.12421	-321.18991	156.44279	570.95789	-314.13440	-46.15399	538.67859	561.03241	101.23636	539.26331	569.53125	
1676	16.750	-188.51747	39.40614	-270.55936	305.40292	37.58968	-240.69551	-223.08858	5.22585	346.11569	265.11121	6.00460	376.28967	-50.76198	751.69733	-755.64008	1.04225	566.19037	-321.10022	156.00275	571.10431	-314.09067	-46.63605	538.49506	561.20203	100.74236	539.11426	569.55566	
1677	16.760	-188.94319	39.41057	-270.57330	304.99442	37.60725	-240.76736	-223.56149	4.95727	346.20792	264.66837	5.90765	376.25998	-49.48989	751.70660	-754.36078	0.52486	566.37170	-321.06650	155.41020	570.94263	-313.64828	-47.32657	538.38458	560.99335	100.80549	539.00433	569.96466	
1678	16.770	-189.32874	39.37260	-270.48178	304.72037	37.73179	-240.72618	-223.86211	4.84789	346.17514	264.17017	5.77310	376.23959	-51.57336	751.70282	-755.59521	-0.01352	566.57916	-321.00266	155.10707	571.40027	-313.78461	-47.46641	538.27472	561.39294	100.36823	538.90558	569.93097	
1679	16.780	-189.77151	39.46194	-270.32651	304.63855	37.85083	-240.55222	-224.27338	4.90482	346.26883	263.95947	5.72805	376.26538	-52.21352	751.75623	-755.62152	-0.59059	566.66016	-321.06265	154.52933	571.20001	-313.33044	-48.02436	538.18359	561.38416	99.76800	538.85059	569.76746	
1680	16.790	-190.20964	39.52879	-270.25827	304.26120	37.96966	-240.37801	-224.67581	4.92582	346.34998	263.75992	5.70276	376.29395	-52.71088	751.76233	-755.64258	-1.12647	566.70508	-321.00522	154.08507	571.24310	-313.22595	-48.53191	538.13629	561.41949	99.20264	538.75574	569.77112	
1681	16.800	-190.57570	39.58437	-270.22009	303.91391	37.99544	-240.28618	-225.11490	4.88346	346.45129	263.50879	5.62765	376.31656	-53.06702	751.74518	-755.61169	-1.76541	566.69086	-320.92279	153.80431	571.30811	-313.20859	-48.82038	538.08484	561.43707	98.81743	538.70087	569.86774	
1682	16.810	-190.78163	39.57062	-270.21390	303.48956	37.99932	-240.28102	-225.36122	4.76949	346.50861	263.05191	5.47399	376.35181	-53.45638	751.79181	-755.54358	-2.25405	566.74731	-320.98843	153.08084	571.61377	-313.67114	-49.01143	538.00555	561.53619	98.33263	538.59094	569.94196	
1683	16.820	-191.08167	39.56083	-270.21231	303.06030	38.08518	-240.29953	-225.66849	4.71640	346.60434	262.51056	5.27540	376.27005	-52.51778	751.70209	-754.27081	-2.68643	566.87762	-320.90591	152.59822	571.72308	-313.70551	-48.98549	537.88269	561.55377	98.16315	538.29614	570.01892	
1684	16.830	-191.43211	39.62033	-270.18823	302.41226	38.11248	-240.42189	-225.97583	4.67950	346.55011	262.06113	5.15243	376.37469	-54.15970	751.83405	-755.27740	-3.04262	566.85590	-320.81299	152.22942	571.77429	-313.70724	-49.57499	537.79822	561.70087	97.93738	538.22076	570.02979	
1685	16.840	-191.89967	39.77097	-270.16840	302.03146	38.03749	-240.51749	-226.34505	4.60982	346.50623	261.60226	4.99262	376.46600	-54.42977	751.79919	-755.23395	-3.32971	566.92426	-320.71161	151.89507	571.81348	-313.64139	-49.93878	537.70996	561.75854	97.57663	538.35614	570.01971	
1686	16.850	-192.16103	39.78320	-270.18140	301.57477	38.05194	-240.57597	-226.80363	4.58203	346.50443	261.32428	4.96060	376.46689	-54.77467	751.79871	-755.24103	-3.72216	566.96259	-320.60522	151.59436	571.82532	-313.63550	-50.73148	537.57861	561.71442	97.41511	538.26392	570.36139	
1687	16.860	-192.45230	39.91202	-270.10767	301.41675	38.20660	-240.53943	-227.23335	4.53253	346.43243	261.24103	5.04733	376.59940	-55.14879	751.84247	-755.20172	-3.91404	566.94641	-320.57349	151.09155	571.79773	-313.45953	-51.47002	537.50067	561.47369	97.02599	538.18481	570.39386	
1688	16.870	-192.74289	39.91774	-270.06903	301.30008	38.34252	-240.44154	-227.58937	4.51931	346.46442	260.93924	5.01149	376.62103	-55.46436	751.88000	-755.20850	-4.37543	567.07178	-320.48541	150.70207	571.87488	-313.25546	-51.40826	537.46667	561.76904	96.46505	538.16125	570.44598	
1689	16.880	-192.95049	39.82827	-269.96539	301.10910	38.36580	-240.43568	-227.98146	4.49017	346.53433	260.63113	5.08334	376.61639	-55.80793	751.88403	-755.23578	-4.78750	567.13062	-320.51883	150.33868	571.98401	-313.18320	-51.71700	537.35687	561.82269	95.84335	538.11743	570.09790	
1690	16.890	-193.34985	39.81379	-269.89215	301.11191	38.84737	-239.85672	-228.25723	4.43534	346.55383	260.40424	5.11676	376.66794	-54.34881	751.95160	-753.76978	-5.02336	567.14423	-320.52713	150.07925	572.10760	-313.17566	-52.01953	537.32495	561.86298	95.56865	537.96820	570.18994	
1691	16.900	-193.87915	39.81554	-269.91678	300.68445	38.78439	-239.79869	-228.44536	4.38406	346.53348	259.98462	5.06406	376.71823	-56.62761	752.02875	-755.48004	-5.33168	567.26489	-320.52777	149.84663	572.22498	-313.20764	-52.34631	537.25824	561.90955	95.19859	537.88983	570.32892	
1692	16.910	-194.24841	39.92121	-269.96780	299.89746	38.61176	-239.80609	-228.74550	4.32469	346.48019	259.40640	4.91271	376.68329	-56.88700	752.07556	-755.55219	-5.58798	567.29108	-320.47144	149.50578	572.31635	-313.23184	-52.69300	537.18353	561.92090	94.88734	537.82153	570.36401	
1693	16.920	-194.60771	39.97623	-270.04959	299.25638	38.05414	-240.07590	-229.21053	4.39332	346.37009	259.08221	5.00844	376.68878	-57.05276	752.07385	-755.56049	-5.83490	567.31604	-320.48294	149.17009	572.41010	-313.28632	-53.18176	537.14850	561.93445	94.39340	537.79773	570.34863	
